<svg width="22" height="22" viewBox="0 0 22 22" fill="none" xmlns="http://www.w3.org/2000/svg">
<g id="share 2">
<g id="Group 1410082913">
<path id="Vector" d="M17.5135 16.3988C15.3698 17.0588 13.0434 16.6607 11.2348 15.3241C9.42609 13.9874 8.34632 11.8687 8.32047 9.60521C8.31381 6.89307 9.79445 4.40033 12.1666 3.12937C12.4085 3.00201 12.5305 2.72202 12.4602 2.4559C12.3983 2.18759 12.1606 1.99827 11.8879 2.00006H11.886C9.44269 1.9914 7.10426 3.0027 5.42447 4.79477C3.74469 6.58697 2.87276 9.00044 3.01504 11.464C3.11393 13.8668 4.17575 16.1257 5.95661 17.722C7.6062 19.1864 9.72617 19.9959 11.9223 20C12.0987 20 12.2758 19.9946 12.4521 19.9839C13.7379 19.9022 14.9911 19.5407 16.1257 18.9244C16.8537 18.5157 17.519 18.002 18.1003 17.3996C18.293 17.2058 18.3309 16.9048 18.1923 16.6685C18.0538 16.4324 17.7742 16.3213 17.5135 16.3988ZM15.8439 18.3956C14.7853 18.971 13.6161 19.3084 12.4164 19.3848C10.198 19.5124 8.01904 18.7538 6.35013 17.2725C4.68966 15.7828 3.70007 13.6753 3.60866 11.4341C3.47468 9.13425 4.28811 6.8807 5.85609 5.20734C7.4242 3.53411 9.60742 2.59013 11.8884 2.59892C9.32013 3.97595 7.71788 6.676 7.72604 9.61277C7.75433 12.0637 8.9232 14.3584 10.8813 15.8064C12.8393 17.2546 15.3581 17.6875 17.68 16.9749C17.1396 17.536 16.5211 18.0146 15.8439 18.3956Z" fill="black"/>
<path id="Vector_2" d="M12.93 7.09568C13.7492 7.09568 14.4157 7.90338 14.4157 8.89641C14.4157 9.06223 14.5487 9.1966 14.7129 9.1966C14.877 9.1966 15.01 9.06223 15.01 8.89641C15.01 7.90338 15.6767 7.09568 16.4958 7.09568C16.66 7.09568 16.793 6.96132 16.793 6.79549C16.793 6.62981 16.66 6.49544 16.4958 6.49544C15.6767 6.49544 15.01 5.68761 15.01 4.69472C15.01 4.5289 14.877 4.39453 14.7129 4.39453C14.5487 4.39453 14.4157 4.5289 14.4157 4.69472C14.4157 5.68761 13.7492 6.49544 12.93 6.49544C12.7658 6.49544 12.6328 6.62981 12.6328 6.79549C12.6328 6.96132 12.7658 7.09568 12.93 7.09568ZM14.7129 5.93037C14.8929 6.28208 15.1606 6.58021 15.4896 6.79549C15.1606 7.01092 14.8929 7.30904 14.7129 7.66075C14.5328 7.30904 14.2651 7.01092 13.9362 6.79549C14.2651 6.58021 14.5328 6.28208 14.7129 5.93037Z" fill="black"/>
<path id="Vector_3" d="M18.7044 9.94562C18.0958 9.94562 17.6007 9.33974 17.6007 8.59511C17.6007 8.42929 17.4677 8.29492 17.3036 8.29492C17.1394 8.29492 17.0064 8.42929 17.0064 8.59511C17.0064 9.33974 16.5114 9.94562 15.9027 9.94562C15.7386 9.94562 15.6055 10.08 15.6055 10.2458C15.6055 10.4115 15.7386 10.5459 15.9027 10.5459C16.5114 10.5459 17.0064 11.1517 17.0064 11.8965C17.0064 12.0622 17.1394 12.1966 17.3036 12.1966C17.4677 12.1966 17.6007 12.0622 17.6007 11.8965C17.6007 11.1517 18.0958 10.5459 18.7044 10.5459C18.8686 10.5459 19.0016 10.4115 19.0016 10.2458C19.0016 10.08 18.8686 9.94562 18.7044 9.94562ZM17.3036 10.7949C17.1764 10.5799 17.0075 10.3931 16.8067 10.2458C17.0075 10.0985 17.1764 9.91168 17.3036 9.69654C17.4307 9.91168 17.5997 10.0985 17.8004 10.2458C17.5997 10.3931 17.4307 10.5799 17.3036 10.7949Z" fill="black"/>
</g>
</g>
</svg>
