<svg width="25" height="27" viewBox="0 0 25 27" fill="none" xmlns="http://www.w3.org/2000/svg">
<path d="M6.86887 5.5453C6.08887 6.19863 6.15387 6.99196 7.04221 8.1353C7.95221 9.27863 8.90554 11.7286 8.90554 12.942C8.90554 13.6186 8.75387 13.992 8.32054 14.4353C7.10721 15.672 6.04554 15.462 4.20387 13.6653C3.14221 12.6153 2.60054 12.522 1.86387 13.3386C1.23554 13.992 1.19221 14.5286 1.66887 15.2753C1.95054 15.6953 2.21054 15.7886 3.25054 15.7886C5.95887 15.7886 7.73554 17.072 8.68887 19.7553C9.42554 21.7853 10.2272 22.392 12.0039 22.2753C13.5205 22.1586 14.3439 21.412 14.8855 19.6853C15.6222 17.3053 17.6372 15.7886 20.0855 15.7886C21.6022 15.7886 22.1222 15.392 22.1222 14.202C22.1222 13.432 21.4939 12.7553 20.7572 12.7553C20.5189 12.7553 19.8472 13.222 19.2622 13.8053C18.6772 14.3886 17.8105 14.972 17.3555 15.112C16.6405 15.3453 16.4239 15.322 15.7955 14.9253C14.9072 14.3653 14.4955 13.5486 14.6255 12.6386C14.7989 11.262 15.6655 9.20863 16.5105 8.18196C17.4855 6.9453 17.5505 6.40863 16.8139 5.63863C16.1422 4.89196 15.5355 4.89196 14.8422 5.63863C14.3655 6.15196 14.3222 6.33863 14.4522 7.45863C14.5822 8.5553 14.4739 9.1153 13.7805 11.332C12.9139 14.1786 12.4589 14.762 11.4189 14.482C10.7472 14.3186 10.4872 13.8053 9.64221 11.122C9.18721 9.62863 9.05721 8.74196 9.07887 7.5753C9.12221 6.15196 9.07887 5.98863 8.55887 5.5453C7.84387 4.93863 7.58387 4.93863 6.86887 5.5453Z" fill="#17CE92"/>
</svg>


