<svg width="24" height="25" viewBox="0 0 24 25" fill="none" xmlns="http://www.w3.org/2000/svg">
<path fill-rule="evenodd" clip-rule="evenodd" d="M12 4C7.313 4 3.5 7.813 3.5 12.5C3.5 17.187 7.313 21 12 21C16.687 21 20.5 17.187 20.5 12.5C20.5 7.813 16.687 4 12 4ZM12 22.5C6.486 22.5 2 18.014 2 12.5C2 6.986 6.486 2.5 12 2.5C17.514 2.5 22 6.986 22 12.5C22 18.014 17.514 22.5 12 22.5Z" fill="#212121"/>
<path fill-rule="evenodd" clip-rule="evenodd" d="M15.4311 16.1927C15.3001 16.1927 15.1681 16.1587 15.0471 16.0877L11.2771 13.8387C11.0511 13.7027 10.9111 13.4577 10.9111 13.1937V8.3457C10.9111 7.9317 11.2471 7.5957 11.6611 7.5957C12.0761 7.5957 12.4111 7.9317 12.4111 8.3457V12.7677L15.8161 14.7977C16.1711 15.0107 16.2881 15.4707 16.0761 15.8267C15.9351 16.0617 15.6861 16.1927 15.4311 16.1927Z" fill="#212121"/>
</svg>
